<svg width="70" height="70" fill="none" xmlns="http://www.w3.org/2000/svg"><circle cx="35" cy="35" r="35" fill="url(#paint0_linear)"/><g clip-path="url(#clip0)"><path d="M42.474 28.464c-3.855 2.345-4.287 7.372-4.134 10.556 2.932-3.447 6.545-5.273 8.608-5.617-3.317 1.3-5.817 3.886-7.895 6.743-.839 1.47-1.61 2.908-2.048 4.496-.479-1.86-1.296-3.597-2.176-5.373-2.475-3.856-5.516-7.393-9.71-9.326 2.643.601 7.183 3.238 10.717 7.921.44-4.11.259-10.65-4.553-13.976-5.294-3.658-11.977-4.907-15.278-5.318-.75-.093-1.27.73-.861 1.365 1.08 1.675 2.548 4.658 2.765 8.732.215 4.072.465 11.595 15.003 12.72 2.16 3.945 3.223 6.05 3.616 9.82.03.287.434.313.503.034.267-1.092.971-6.584 3.402-9.378 11.245-.213 11.775-5.994 12.125-9.12.32-2.866 1.408-4.98 2.286-6.268a.89.89 0 00-.808-1.387c-2.681.214-7.551.937-11.562 3.376z" fill="#fff"/></g><defs><linearGradient id="paint0_linear" x1="6.286" y1="0" x2="67.952" y2="4.468" gradientUnits="userSpaceOnUse"><stop stop-color="#FFC522"/><stop offset="1" stop-color="#FFBE09"/></linearGradient><clipPath id="clip0"><path fill="#fff" transform="translate(15 15)" d="M0 0h40v40H0z"/></clipPath></defs></svg>