<svg width="70" height="70" fill="none" xmlns="http://www.w3.org/2000/svg"><circle cx="35" cy="35" r="35" fill="url(#paint0_linear)"/><path d="M42.872 24.553a127.85 127.85 0 00-6.995-9.149 1.154 1.154 0 00-1.754 0c-.035.04-3.54 4.153-6.995 9.15C22.398 31.391 20 36.59 20 40c0 8.27 6.73 15 15 15s15-6.73 15-15c0-3.41-2.398-8.608-7.128-15.447zM31.538 44.23a1.154 1.154 0 01-2.307 0v-2.693h-2.308v2.693a1.154 1.154 0 01-2.307 0v-7.693a1.154 1.154 0 012.307 0v2.693h2.308v-2.693a1.154 1.154 0 012.307 0v7.693zm5.385 1.538a1.154 1.154 0 110 2.308h-3.461a1.154 1.154 0 01-1.154-1.154 3.3 3.3 0 011.474-2.754l1.832-1.221a.349.349 0 00-.194-.64h-1.958a1.154 1.154 0 010-2.308h1.958a2.66 2.66 0 012.657 2.657 2.65 2.65 0 01-1.183 2.21l-1.352.902h1.381zm8.462-3.846a3.465 3.465 0 01-3.462 3.462 3.465 3.465 0 01-3.461-3.462v-3.077a3.466 3.466 0 013.461-3.461 3.465 3.465 0 013.462 3.461v3.077z" fill="#fff"/><path d="M41.923 37.692c-.636 0-1.154.518-1.154 1.154v3.077c0 .636.518 1.154 1.154 1.154.636 0 1.154-.518 1.154-1.154v-3.077c0-.636-.518-1.154-1.154-1.154z" fill="#fff"/><defs><linearGradient id="paint0_linear" x1="6.286" y1="0" x2="67.952" y2="4.468" gradientUnits="userSpaceOnUse"><stop stop-color="#FFC522"/><stop offset="1" stop-color="#FFBE09"/></linearGradient></defs></svg>