<svg width="70" height="70" fill="none" xmlns="http://www.w3.org/2000/svg"><circle cx="35" cy="35" r="35" fill="url(#paint0_linear)"/><g clip-path="url(#clip0)" fill="#fff"><path d="M24.83 43.829a84.412 84.412 0 012.124-2.952 6.27 6.27 0 01-3.061-5.378c.012-5.665 6.985-8.382 10.844-4.327l1.19-1.47a8.358 8.358 0 011.909-1.727 8.873 8.873 0 01-.594-3.464 7.207 7.207 0 000-.366c-.096-3.81-3.305-6.878-7.13-6.835a7.03 7.03 0 00-4.941 2.082 6.964 6.964 0 00-2.039 5.107c.044 1.853-.458 3.622-1.453 5.116-3.226 4.674-1.602 11.399 3.151 14.214z"/><path d="M30.187 31.572c-4.17.055-5.44 5.551-1.78 7.43.12-.152.24-.304.362-.455l4.476-5.53a3.952 3.952 0 00-3.058-1.445zm27.464-5.051h-.573a1.172 1.172 0 01-.827-2.003l1.296-1.29c.914-.874.914-2.441 0-3.314a2.374 2.374 0 00-3.342 0l-1.297 1.291a1.172 1.172 0 01-2-.83v-.572c-.13-3.112-4.593-3.11-4.722 0v7.67a8.363 8.363 0 013.755 3.74h7.71c3.133-.13 3.13-4.563 0-4.692zm-10.936 4.178a6.05 6.05 0 00-8.965.479l-6.53 8.068 2.264 2.253a1.172 1.172 0 11-1.655 1.662l-2.083-2.073a82.02 82.02 0 00-9.136 14.626c-.19.39.03.67.134.772a.65.65 0 00.781.125c8.884-4.454 13.394-7.736 15.613-9.706l.045-.037 7.53-6.04-3.118-3.104c-1.059-1.141.51-2.715 1.654-1.662l3.294 3.28a5.994 5.994 0 001.928-4.083 5.99 5.99 0 00-1.756-4.56z"/></g><defs><linearGradient id="paint0_linear" x1="6.286" y1="0" x2="67.952" y2="4.468" gradientUnits="userSpaceOnUse"><stop stop-color="#FFC522"/><stop offset="1" stop-color="#FFBE09"/></linearGradient><clipPath id="clip0"><path fill="#fff" transform="translate(20 17)" d="M0 0h40v40H0z"/></clipPath></defs></svg>