<svg width="70" height="70" fill="none" xmlns="http://www.w3.org/2000/svg"><circle cx="35" cy="35" r="35" fill="url(#paint0_linear)"/><path d="M17 17h35v3.331H17V17zm5.382 23.826v1.557l1.261 1.26.932.23 2.001-.813v-1.314l-1.178-.92h-3.016zM43.244 24.93v1.51h-2.05v-2.36l1.698-1.699H17v6.663h5.427v2.05H17v3.118l2.968-.821h.462l3.344.926 3.345-.926h.462l3.344.926 3.344-.926h.462l3.344.926 3.344-.926h.462l3.344.926 3.345-.926h.462l2.968.822V22.382h-6.207l-2.549 2.549zm-18.703 1.81h-2.05v-2.052h2.05v2.051zm8.555.023h-1.463l-2.154 2.154h-2.676v-2.05h1.826l2.154-2.155h2.313v2.051zm4.293 2.154h-2.05v-2.05h2.05v2.05zm7.398 2.179h-4.43v-2.05h4.43v2.05zm1.83-6.408h2.052v2.051h-2.051v-2.05zm-8.182 16.197l-1.368.97v.82l1.763 1.522h1.897l1.134-1.848-.54-1.37-2.886-.094zm-7.768 7.59l-1.556 1.334V52h5.138v-2.658l-1.01-.867h-2.572zm17.922-.327l-1.808.213v1.269L48.769 52H52v-6.932l-1.865.455-1.546 2.625z" fill="#fff"/><path d="M45.226 36.446l-3.576-.99-3.575.99-3.575-.99-3.575.99-3.575-.99-3.576.99-3.575-.99L17 36.34V52h3.331v-3.984h2.051V52h4.678v-3.134l2.848-2.442h4.09L36.3 48.4V52h9.792l-1.362-1.624v-3.838l2.609-.307 1.469-2.495L52 42.957v-2.349h-3.714l-1.007 1.007-1.45-1.45 1.607-1.607H52V36.34l-3.2-.885-3.574.99zm-16.599 7.996l-3.896 1.58-2.133-.523-2.267-2.267v-4.456h5.773l2.523 1.97v3.696zm13.248 1.806h-3.807l-3.051-2.633v-2.822l2.795-1.98 4.922.16 1.41 3.575-2.27 3.7z" fill="#fff"/><defs><linearGradient id="paint0_linear" x1="6.286" y1="0" x2="67.952" y2="4.468" gradientUnits="userSpaceOnUse"><stop stop-color="#FFC522"/><stop offset="1" stop-color="#FFBE09"/></linearGradient></defs></svg>