<svg width="50" height="50" fill="none" xmlns="http://www.w3.org/2000/svg"><g clip-path="url(#clip0)" fill="#F6F6F6"><path d="M26.955 24.502l-6.25-11.459a1.04 1.04 0 00-.913-.543h-12.5c-.38 0-.733.209-.914.543L.128 24.502c-.17.31-.17.686 0 .996l6.25 11.459c.181.334.533.543.914.543h12.5c.38 0 .732-.209.913-.543l6.25-11.459c.171-.31.171-.686 0-.996zm-16.69 8.704a1.039 1.039 0 01-1.413-.416l-3.977-7.292a1.04 1.04 0 111.827-.997l3.977 7.292a1.04 1.04 0 01-.415 1.413zm7.053-14.456H9.766a1.041 1.041 0 110-2.083h7.552a1.041 1.041 0 110 2.083zm11.985 4.683c.188.325.532.525.906.525h12.5c.374 0 .718-.2.905-.525l6.25-10.937c.181-.32.181-.713 0-1.034L43.614.525A1.045 1.045 0 0042.71 0h-12.5c-.374 0-.718.2-.905.525l-6.25 10.937c-.181.32-.181.713 0 1.034l6.25 10.937zm14.311 3.134a1.045 1.045 0 00-.905-.525h-12.5c-.374 0-.718.2-.905.525l-6.25 10.937c-.181.32-.181.713 0 1.034l6.25 10.937c.187.325.53.525.905.525h12.5c.374 0 .718-.2.905-.525l6.25-10.937c.181-.32.181-.713 0-1.034l-6.25-10.937zM40.29 45.833h-7.662a1.041 1.041 0 110-2.083h7.662a1.041 1.041 0 110 2.083zm4.386-6.908a1.043 1.043 0 01-1.422-.388l-3.87-6.77a1.041 1.041 0 111.811-1.034l3.87 6.771a1.04 1.04 0 01-.389 1.421z"/></g><defs><clipPath id="clip0"><path fill="#fff" d="M0 0h50v50H0z"/></clipPath></defs></svg>