<svg width="30" height="30" fill="none" xmlns="http://www.w3.org/2000/svg"><g clip-path="url(#clip0)"><path d="M28.233 1.146A1.154 1.154 0 0027.081.05h-3.287a1.154 1.154 0 00-1.15 1.05L20.77 22.233v-8.387h-2.307v-3.461a1.155 1.155 0 00-1.793-.96l-6.634 4.421h-.804v-3.461a1.156 1.156 0 00-1.793-.96L.515 14.04A1.155 1.155 0 000 15v13.846A1.154 1.154 0 001.154 30h27.715c.638 0 1.095-.406 1.095-1.043 0-.1-1.73-27.811-1.73-27.811zM5.77 16.154v3.462H3.462v-3.462h2.307zm5.77 0v3.462H9.23v-3.462h2.308zm5.769 0v3.462H15v-3.462h2.308zM5.77 21.924v3.46H3.462v-3.46h2.307zm5.77 0v3.46H9.23v-3.46h2.308zm5.769 0v3.46H15v-3.46h2.308z" fill="#2B2B2B"/></g><defs><clipPath id="clip0"><path fill="#fff" d="M0 0h30v30H0z"/></clipPath></defs></svg>