<svg width="23" height="30" fill="none" xmlns="http://www.w3.org/2000/svg"><path fill-rule="evenodd" clip-rule="evenodd" d="M11.027 29.848l.473-.68-.473.68zm.946 0l.003-.002.009-.005.024-.02.097-.07c.082-.062.202-.152.353-.27a29.37 29.37 0 001.243-1.025 35.913 35.913 0 003.758-3.784C20.178 21.484 23 16.932 23 11.73a11.85 11.85 0 00-3.366-8.292A11.461 11.461 0 0015.905.895 11.327 11.327 0 0011.5 0C9.988 0 8.49.305 7.095.895a11.46 11.46 0 00-3.729 2.543A11.852 11.852 0 000 11.73c0 5.202 2.822 9.753 5.54 12.941a35.91 35.91 0 003.758 3.784 30.747 30.747 0 001.692 1.366l.026.019.008.005.003.002a.813.813 0 00.946 0zm-.473-.68l.473.68-.473-.68zm4.107-17.501a4.198 4.198 0 01-1.203 2.946 4.077 4.077 0 01-2.904 1.22 4.077 4.077 0 01-2.904-1.22 4.197 4.197 0 01-1.203-2.946c0-1.105.433-2.165 1.203-2.946A4.078 4.078 0 0111.5 7.5c1.09 0 2.134.438 2.904 1.22a4.198 4.198 0 011.203 2.946z" fill="#2B2B2B"/></svg>