<svg width="30" height="30" fill="none" xmlns="http://www.w3.org/2000/svg"><g clip-path="url(#clip0)"><path d="M29.583 24.946l-4.23 4.196c-.624.64-1.452.857-2.258.858-3.564-.107-6.933-1.858-9.7-3.655-4.54-3.304-8.706-7.4-11.32-12.35C1.071 11.92-.106 9.273.006 6.956c.01-.871.245-1.727.859-2.288L5.096.439c.878-.747 1.727-.489 2.29.382l3.402 6.452c.358.765.153 1.584-.382 2.13L8.848 10.96a.765.765 0 00-.159.445c.598 2.313 2.408 4.445 4.007 5.912 1.6 1.468 3.318 3.455 5.55 3.926.275.077.613.104.81-.08l1.813-1.843c.625-.474 1.527-.705 2.195-.318h.031l6.138 3.624c.901.564.995 1.656.35 2.32z" fill="#2B2B2B"/></g><defs><clipPath id="clip0"><path fill="#fff" d="M0 0h30v30H0z"/></clipPath></defs></svg>