<svg width="840" height="1136" fill="none" xmlns="http://www.w3.org/2000/svg"><path fill-rule="evenodd" clip-rule="evenodd" d="M617.609 1093.04a322.918 322.918 0 00-20.009-23.17 296.894 296.894 0 00-45.03-38.71c-16.122-11.21-33.27-20.68-51.184-28.27-52.369-22.03-109.653-27.575-164.938-15.963a244.921 244.921 0 00-14.187 3.349l2.727 3.427c12.061 15.087 25.461 28.927 40.018 41.317 60.76 51.03 138.19 74.51 215.312 65.3a274.304 274.304 0 0037.291-7.28zm-262-821.614a461.61 461.61 0 00-27.931 70.285c5.552 0 11.116-.156 16.692-.468 73.465-3.643 144.759-27.48 206.837-69.155 23.158-15.464 44.852-33.25 64.781-53.112 51.868-51.578 90.522-116.203 112.354-187.841a388.91 388.91 0 00-46.062 2.92 400.097 400.097 0 00-82.58 19.197C494.728 89.877 407.251 168.025 355.609 271.309v.117zm204.847 540.782c16.185-2.33 31.105-10.518 42.217-23.17 11.112-12.652 17.729-28.983 18.723-46.212.995-17.229-3.695-34.29-13.271-48.275-9.575-13.984-23.443-24.027-39.24-28.418-15.798-4.391-32.547-2.858-47.395 4.337-14.848 7.196-26.875 19.61-34.032 35.126-7.157 15.516-9.001 33.175-5.219 49.967 3.783 16.791 12.959 31.677 25.964 42.121 7.401 5.876 15.825 10.152 24.791 12.584a66.761 66.761 0 0027.462 1.591v.349z" fill="#F6F6F6"/><path fill-rule="evenodd" clip-rule="evenodd" d="M802.188-2.392C911.609 49.225 1002.86 135.953 1063 245.48c60.13 109.526 86.08 236.285 74.18 362.281-11.91 125.997-61.07 244.83-140.513 339.629-79.441 94.801-185.123 160.741-302.042 188.481 8.364-3.9 16.545-8.45 24.468-13.16 60.135-35.42 109.164-88.64 141.06-153.11 10.972-22.07 19.811-45.252 26.384-69.195 19.616-71.119 18.82-146.791-2.29-217.432-21.109-70.642-61.581-133.074-116.292-179.393-51.668-43.841-113.951-71.466-179.752-79.728-65.802-8.261-132.476 3.174-192.428 33.002a354.845 354.845 0 00-38.213 22c-5.021 3.489-10.869 5.418-16.877 5.568-6.044-.077-11.95-1.923-17.061-5.335-5.265-3.113-9.535-7.813-12.264-13.499-2.73-5.686-3.797-12.102-3.065-18.431l.368-4.673a514.826 514.826 0 013.685-33.293c11.718.312 23.35.183 34.897-.388 106.586-5.267 208.611-47.254 290.494-119.548 81.883-72.294 139.122-170.923 162.975-280.822a36.84 36.84 0 001.253-7.009c.152-1.266.225-2.54.221-3.816z" fill="#F6F6F6"/><path fill-rule="evenodd" clip-rule="evenodd" d="M569.742-54.608c46.756-.022 93.338 6.02 138.701 17.989-11.054.584-22.33 1.557-33.459 2.96-63.734 7.858-125.378 28.91-181.41 61.951-69.962 41.354-129.257 100.211-172.687 171.411-43.429 71.201-69.668 152.571-76.415 236.98l-.369 4.711c-1.552 18.941 1.94 37.963 10.081 54.917 8.14 16.955 20.605 31.165 35.987 41.028 15.381 9.862 33.066 14.983 51.057 14.783 17.991-.199 35.57-5.71 50.752-15.912a289.139 289.139 0 0131.064-18.106c28.224-13.996 58.397-23.095 89.36-26.946 38.6-4.589 77.675-1.19 115.044 10.007a278.424 278.424 0 0153.506 22.78c50.592 27.877 92.236 70.966 119.676 123.829 27.44 52.862 39.445 113.129 34.502 173.196a325.981 325.981 0 01-8.549 53.23c-4.897-22.402-12.998-43.885-24.026-63.705-13.891-24.762-32.215-46.425-53.948-63.781-19.659-15.919-41.845-28.011-65.518-35.708-5.794-32.037-21.821-61.002-45.401-82.051-23.58-21.048-53.284-32.904-84.145-33.586-30.86-.682-61.007 9.851-85.399 29.84-24.393 19.988-41.551 48.22-48.608 79.974-7.057 31.753-3.583 65.105 9.84 94.477s35.981 52.984 63.903 66.889c27.923 13.904 59.516 17.258 89.498 9.501 29.981-7.758 56.534-26.157 75.217-52.121 9.166-12.766 16.253-27.057 20.968-42.287 2.248 1.012 4.496 2.142 6.706 3.271 25.63 13.308 47.038 34.211 61.613 60.16a157.213 157.213 0 0112.381 27.958c6.428 19.667 9.108 40.484 7.886 61.251-1.965 30.471-12.3 59.674-29.737 84.028-11.49 15.95-25.777 29.41-42.082 39.64-2.69 1.75-5.454 3.43-8.218 5.06a354.087 354.087 0 01-7.37 4.25 396.338 396.338 0 00-12.197-16.75c-33.392-43.27-75.507-78.11-123.27-101.984-47.763-23.875-99.969-36.179-152.806-36.011-45.706.19-90.943 9.738-133.211 28.115a31.978 31.978 0 00-10.438 7.306 34.033 34.033 0 00-6.993 10.976 35.525 35.525 0 00-2.481 12.968 35.542 35.542 0 002.408 12.984 33.95 33.95 0 002.838 5.723c4.901 8.45 9.802 16.313 14.739 23.363 5.823 8.49 11.497 16.24 17.025 23.13 14.739 18.41 31.127 35.27 48.936 50.35 4.127 3.54 8.402 6.97 12.75 10.32-119.139-56.3-216.397-154.077-275.537-277.012-59.14-122.936-76.581-263.589-49.413-398.475C39.662 287.377 109.796 166.42 211.186 79.589 312.577-7.243 439.087-54.694 569.595-54.842l.147.234z" fill="#F6F6F6"/></svg>