<svg width="783" height="815" fill="none" xmlns="http://www.w3.org/2000/svg"><path fill-rule="evenodd" clip-rule="evenodd" d="M260.609 846.387a312.685 312.685 0 00-20.009-21.968 293.307 293.307 0 00-45.03-36.699 288.003 288.003 0 00-51.184-26.804 291.462 291.462 0 00-164.938-15.138c-4.79.923-9.507 1.994-14.187 3.176l2.726 3.248a293.055 293.055 0 0040.02 39.174c60.759 48.383 138.189 70.649 215.311 61.916a286.04 286.04 0 0037.291-6.905zm-262-779.028a424.55 424.55 0 00-27.931 66.642c5.552 0 11.116-.148 16.692-.443a422.095 422.095 0 00206.837-65.571 426.494 426.494 0 0064.781-50.36 422.44 422.44 0 00112.354-178.106 410.106 410.106 0 00-46.062 2.769 418.602 418.602 0 00-82.58 18.202C137.728-104.781 50.251-30.683-1.39 67.248v.111zm204.847 512.755a70.554 70.554 0 0042.217-21.969 70.808 70.808 0 0018.723-43.818 70.83 70.83 0 00-13.271-45.772 70.602 70.602 0 00-39.24-26.946 70.482 70.482 0 00-47.395 4.113 70.67 70.67 0 00-34.032 33.305 70.871 70.871 0 00-5.219 47.377 70.753 70.753 0 0025.964 39.939 70.366 70.366 0 0024.791 11.931 70.286 70.286 0 0027.462 1.509v.331z" fill="#fff"/><path fill-rule="evenodd" clip-rule="evenodd" d="M445.188-192.268C554.609-143.326 645.863-61.093 705.996 42.757c60.132 103.849 86.088 224.038 74.181 343.505-11.906 119.467-61.07 232.141-140.51 322.027C560.226 798.174 454.544 860.703 337.625 887c8.364-3.692 16.545-8.011 24.468-12.479 60.135-33.584 109.164-84.043 141.06-145.172a352.258 352.258 0 0026.384-65.609 355.54 355.54 0 00-2.29-206.164c-21.109-66.98-61.581-126.177-116.292-170.095a353.393 353.393 0 00-179.752-75.595 353.146 353.146 0 00-192.428 31.29 360.264 360.264 0 00-38.213 20.86 32.064 32.064 0 01-16.877 5.28 32.644 32.644 0 01-17.061-5.058 30.435 30.435 0 01-12.265-12.8 30.511 30.511 0 01-3.064-17.476l.368-4.43a463.87 463.87 0 013.685-31.568c11.718.296 23.35.173 34.897-.368 106.586-4.994 208.611-44.805 290.494-113.352 81.883-68.548 139.122-162.065 162.975-266.268a33.307 33.307 0 001.253-6.646c.152-1.2.225-2.408.221-3.618z" fill="#fff"/><path fill-rule="evenodd" clip-rule="evenodd" d="M212.742-241.778a570.377 570.377 0 01138.701 17.057c-11.054.553-22.33 1.477-33.459 2.806a487.778 487.778 0 00-181.41 58.741C66.612-123.964 7.317-68.157-36.113-.647a491.67 491.67 0 00-76.415 224.698l-.369 4.467a96.811 96.811 0 0010.081 52.071 96.577 96.577 0 0035.987 38.901 96.335 96.335 0 0051.057 14.018A96.331 96.331 0 0034.98 318.42a293.152 293.152 0 0131.064-17.167 289.737 289.737 0 0189.36-25.55 298.526 298.526 0 01115.044 9.489 286.67 286.67 0 0153.506 21.599c50.592 26.432 92.236 67.287 119.676 117.411a289.812 289.812 0 0134.502 164.219 294.369 294.369 0 01-8.549 50.472 214.607 214.607 0 00-24.026-60.403 209.937 209.937 0 00-53.948-60.476 208.4 208.4 0 00-65.518-33.857 135.07 135.07 0 00-45.401-77.798 134.602 134.602 0 00-84.145-31.846 134.587 134.587 0 00-85.399 28.293 135.046 135.046 0 00-48.608 75.829 135.257 135.257 0 009.84 89.581 134.884 134.884 0 0063.903 63.422 134.528 134.528 0 0089.498 9.009 134.736 134.736 0 0075.217-49.42 136.688 136.688 0 0020.968-40.095c2.248.96 4.496 2.031 6.706 3.102a147.171 147.171 0 0161.613 57.042 145.266 145.266 0 0112.381 26.509 149.752 149.752 0 017.886 58.076 149.006 149.006 0 01-29.737 79.675 147.821 147.821 0 01-42.082 37.585c-2.69 1.662-5.454 3.25-8.218 4.8a344.047 344.047 0 01-7.37 4.024 376.407 376.407 0 00-12.197-15.875 354.948 354.948 0 00-123.27-96.703A354.28 354.28 0 0034.87 675.222 353.152 353.152 0 00-98.341 701.88a32.035 32.035 0 00-10.438 6.928 32.112 32.112 0 00-6.993 10.406 32.167 32.167 0 00-2.481 12.297 32.155 32.155 0 002.408 12.31 31.514 31.514 0 002.838 5.427c4.901 8.012 9.802 15.47 14.74 22.153 5.822 8.049 11.496 15.396 17.024 21.931a354.588 354.588 0 0048.936 47.739c4.127 3.36 8.402 6.608 12.75 9.783-119.139-53.378-216.397-146.088-275.537-262.653-59.14-116.564-76.581-249.927-49.413-377.823 27.169-127.895 97.303-242.583 198.693-324.914C-44.424-196.867 82.086-241.859 212.595-242l.147.222z" fill="#fff"/></svg>