<svg width="1920" height="1079" fill="none" xmlns="http://www.w3.org/2000/svg"><path d="M183.746 147.089c-246.299-2.489-456.865 72.728-582.083 291.242-38.551 67.444-63.741 154.479-44.184 236.284 28.439 116.556 133.178 177.526 229.248 193.647C29.16 908.703 265.433 763.739 508.87 785.041c155.186 13.548 302.901 93.528 455.721 134.357 305.449 81.362 632.069-3.402 878.619-227.934 76.92-69.024 148.35-157.153 178.8-270.592 30.46-113.44 8.05-257.404-71.86-328.979-40.89-33.706-92.23-54.04-146.5-58.02-378.68-46.176-735.49 257.862-1113.289 199.488-213.864-33.065-405.391-85.204-506.627-86.428" fill="#F6F6F6"/></svg>