<svg width="1920" height="951" fill="none" xmlns="http://www.w3.org/2000/svg"><path d="M1492.16 129.6c217.02-2.193 402.54 64.08 512.87 256.613 33.97 59.423 56.17 136.11 38.93 208.188-25.05 102.697-117.34 156.417-201.99 170.622-213.6 35.632-421.78-92.095-636.27-73.326-136.74 11.937-266.889 82.408-401.537 118.382-269.131 71.684-556.918-2.998-774.152-200.832C-37.761 548.43-100.694 470.78-127.53 370.829c-26.835-99.952-7.085-226.798 63.322-289.862 36.027-29.698 81.264-47.614 129.08-51.122C398.525-10.84 712.907 257.047 1045.79 205.614c188.43-29.134 357.18-75.073 446.38-76.152" fill="#F6F6F6"/></svg>