<svg width="485" height="378" fill="none" xmlns="http://www.w3.org/2000/svg"><path fill-rule="evenodd" clip-rule="evenodd" d="M243.509 431.258a144.434 144.434 0 00-9.25-10.137 135.531 135.531 0 00-20.817-16.936 133.21 133.21 0 00-23.661-12.369 134.966 134.966 0 00-76.248-6.986c-2.214.426-4.395.92-6.558 1.466l1.26 1.499a135.425 135.425 0 0018.5 18.077 135.495 135.495 0 0099.535 28.573c5.81-.68 11.569-1.745 17.239-3.187zM122.391 71.76a195.737 195.737 0 00-12.912 30.753c2.567 0 5.139-.068 7.717-.204a195.362 195.362 0 0095.616-30.26 197.061 197.061 0 0029.947-23.239 194.89 194.89 0 0051.939-82.19 189.64 189.64 0 00-21.293 1.278 193.796 193.796 0 00-38.175 8.399 197.75 197.75 0 00-112.839 95.412v.051zm94.697 236.621a32.631 32.631 0 0019.516-10.138 32.651 32.651 0 002.521-41.343 32.638 32.638 0 00-55.783 4.833 32.651 32.651 0 009.591 40.293 32.542 32.542 0 0024.155 6.202v.153z" fill="#fff"/><path fill-rule="evenodd" clip-rule="evenodd" d="M328.836-48.05A263.647 263.647 0 01449.402 60.407 263.71 263.71 0 01418.74 367.53 263.625 263.625 0 01279.112 450c3.866-1.704 7.648-3.697 11.311-5.759a163.314 163.314 0 0065.209-66.992 162.355 162.355 0 0012.197-30.277 163.793 163.793 0 00-54.818-173.632 163.515 163.515 0 00-172.052-20.446 166.532 166.532 0 00-17.665 9.627 14.843 14.843 0 01-7.802 2.436 15.108 15.108 0 01-7.887-2.334 14.052 14.052 0 01-7.086-13.971l.17-2.045c.409-4.941.977-9.797 1.703-14.567 5.418.136 10.795.079 16.132-.17a225.876 225.876 0 00134.29-52.309 225.944 225.944 0 0075.341-122.875c.297-1 .491-2.027.579-3.066.07-.554.104-1.112.102-1.67z" fill="#fff"/><path fill-rule="evenodd" clip-rule="evenodd" d="M221.381-70.898a264.154 264.154 0 0164.119 7.872c-5.111.255-10.323.681-15.468 1.295a225.763 225.763 0 00-83.862 27.107 226.585 226.585 0 00-79.83 75.001A226.629 226.629 0 0071.014 144.07l-.17 2.061a44.61 44.61 0 0021.296 41.981 44.596 44.596 0 0047.065-.494 135.65 135.65 0 0114.36-7.922 134.157 134.157 0 0141.31-11.791 138.258 138.258 0 0153.182 4.379 132.723 132.723 0 0124.735 9.968 133.51 133.51 0 0155.324 54.181 133.54 133.54 0 0115.949 75.783 135.516 135.516 0 01-3.952 23.291 98.934 98.934 0 00-11.106-27.874 96.953 96.953 0 00-24.939-27.908A96.4 96.4 0 00273.78 264.1a62.294 62.294 0 00-59.887-50.598 62.29 62.29 0 00-39.478 13.057 62.31 62.31 0 00-17.922 76.332 62.304 62.304 0 0029.542 29.267 62.295 62.295 0 0076.144-18.648 63.06 63.06 0 009.693-18.503 72.74 72.74 0 013.1 1.431 67.984 67.984 0 0128.482 26.324 66.962 66.962 0 015.724 12.233 68.982 68.982 0 013.646 26.8 68.693 68.693 0 01-13.747 36.768 68.313 68.313 0 01-19.454 17.344c-1.244.767-2.521 1.5-3.799 2.215a158.286 158.286 0 01-3.407 1.857 173.957 173.957 0 00-5.638-7.326 164.033 164.033 0 00-127.625-60.382 163.524 163.524 0 00-61.581 12.301 14.827 14.827 0 00-8.092 19.355c.355.876.795 1.714 1.312 2.505 2.266 3.697 4.531 7.139 6.814 10.222 2.692 3.715 5.315 7.105 7.87 10.121a163.756 163.756 0 0022.622 22.03c1.908 1.55 3.884 3.05 5.894 4.515A263.616 263.616 0 01-13.382 312.113a263.686 263.686 0 01-22.843-174.354A263.65 263.65 0 0155.627-12.179 263.566 263.566 0 01221.313-71l.068.102z" fill="#fff"/></svg>