<svg width="40" height="40" fill="none" xmlns="http://www.w3.org/2000/svg"><path d="M20 7.857C13.294 7.857 7.857 13.294 7.857 20S13.294 32.143 20 32.143 32.143 26.706 32.143 20C32.136 13.297 26.703 7.864 20 7.857zm9.841 9.444c0 .444-.048 4.385-1.724 6.061a3.523 3.523 0 01-4.167.627l-1.093 1.275V30H21.43v-4.82a12.726 12.726 0 00-1.697-2.48 5 5 0 01-7.012-.053c-2.167-2.168-2.23-7.936-2.23-8.586 0-.394.32-.714.715-.714.65 0 6.418.062 8.586 2.229a5.005 5.005 0 01.827 5.97c.618.683 1.17 1.423 1.65 2.21l.571-.67a3.563 3.563 0 01.225-4.776c1.676-1.675 5.617-1.724 6.061-1.724a.713.713 0 01.716.714z" fill="#6FBB84"/><path d="M25.887 19.535l1.084.928-2.054 2.396c.768.26 1.615.063 2.19-.508.874-.875 1.192-2.993 1.279-4.309-1.317.088-3.437.406-4.31 1.278a2.143 2.143 0 00-.29 2.663l2.1-2.448zm-13.951-4.742c.085 1.956.5 5.548 1.794 6.845a3.565 3.565 0 005.014.03 15.764 15.764 0 00-3.349-2.454l.638-1.278a16.85 16.85 0 013.526 2.538 3.576 3.576 0 00-.778-3.883c-1.297-1.3-4.889-1.713-6.845-1.798z" fill="#6FBB84"/><path d="M35.956 16.09a16.297 16.297 0 00-1.907-4.61.715.715 0 01.047-.81l2.125-2.733-4.158-4.158-2.733 2.125a.714.714 0 01-.81.047 16.3 16.3 0 00-4.61-1.907.714.714 0 01-.54-.606L22.94 0h-5.88l-.43 3.438a.715.715 0 01-.539.606 16.293 16.293 0 00-4.61 1.907.715.715 0 01-.81-.047L7.937 3.78 3.779 7.937l2.125 2.733c.182.234.2.557.047.81a16.3 16.3 0 00-1.907 4.61.714.714 0 01-.606.54L0 17.06v5.88l3.438.43a.715.715 0 01.606.539 16.293 16.293 0 001.907 4.61.715.715 0 01-.047.81L3.78 32.063l4.158 4.158 2.733-2.125a.715.715 0 01.81-.047 16.297 16.297 0 004.61 1.907c.288.07.503.312.54.606L17.057 40h5.881l.429-3.438a.715.715 0 01.54-.606 16.29 16.29 0 004.609-1.907.715.715 0 01.81.047l2.733 2.125 4.159-4.158-2.126-2.733a.714.714 0 01-.047-.81 16.3 16.3 0 001.907-4.61.714.714 0 01.606-.54l3.438-.428V17.06l-3.438-.428a.715.715 0 01-.603-.541zM5 20.714H3.571v-1.428H5v1.428zM31.112 7.878l1.01 1.01-1.01 1.01-1.01-1.01 1.01-1.01zM19.286 3.57h1.428V5h-1.428V3.571zM8.888 7.878l1.01 1.01-1.01 1.01-1.01-1.01 1.01-1.01zm0 24.244l-1.01-1.01 1.01-1.01 1.01 1.01-1.01 1.01zm11.826 4.307h-1.428V35h1.428v1.429zm10.398-4.307l-1.01-1.01 1.01-1.01 1.01 1.01-1.01 1.01zM20 33.572c-7.495 0-13.571-6.077-13.571-13.572 0-7.495 6.075-13.571 13.571-13.571 7.495 0 13.571 6.075 13.571 13.571-.008 7.492-6.079 13.563-13.571 13.571zm16.429-12.858H35v-1.428h1.429v1.428z" fill="#FFC522"/></svg>