<svg width="40" height="40" fill="none" xmlns="http://www.w3.org/2000/svg"><path d="M17.163 33.299c-2.248.509-4.572 1.037-7.62.494-3.145-.56-4.938-1.384-5.97-2.144v7.73c0 .337.215.621.471.621h31.912c.255 0 .471-.285.471-.621v-1.686c-.224-.217-2.794-2.58-9.872-4.503-4.057-1.102-6.65-.514-9.392.109z" fill="#FFC522"/><path d="M17.163 25.735c-2.248.51-4.57 1.037-7.62.495-3.145-.56-4.938-1.384-5.97-2.144v5.432c.004.017.016.03.02.048.03.095.682 1.839 6.2 2.821 2.765.492 4.848.02 7.053-.481 2.794-.634 5.683-1.29 10.083-.094 5.219 1.418 8.11 3.073 9.498 4.058v-5.741c-.227-.22-2.799-2.58-9.872-4.503-4.057-1.1-6.648-.513-9.392.11z" fill="#FFC522"/><path d="M17.163 17.506c-2.247.51-4.571 1.036-7.62.494-3.145-.56-4.938-1.384-5.97-2.144v6.098c.004.017.016.03.02.048.03.095.682 1.839 6.2 2.821 2.764.491 4.848.02 7.053-.481 2.794-.633 5.684-1.29 10.083-.094 5.22 1.418 8.11 3.073 9.498 4.057V21.9c-.224-.216-2.794-2.579-9.872-4.502-4.057-1.101-6.65-.513-9.392.109z" fill="#FFC522"/><path d="M9.794 16.594c2.763.492 4.847.02 7.052-.48 2.794-.635 5.684-1.29 10.083-.095 5.22 1.418 8.11 3.073 9.498 4.058V8.967c-.044-.011-.088-.018-.132-.032l-4.464-1.38a18.856 18.856 0 00-13.255.782l-1.407.626A20.276 20.276 0 013.573 9.997v3.729c.004.017.016.03.02.048.03.095.683 1.838 6.2 2.82z" fill="#FFC522"/><path d="M38.253 2.839L31.83.847a18.806 18.806 0 00-13.253.79l-1.408.626a20.313 20.313 0 01-13.864.962c-.25-.073-.51-.11-.771-.11a2.615 2.615 0 00-1.582.527 2.35 2.35 0 00-.95 1.888 2.452 2.452 0 001.514 2.248 18.89 18.89 0 0015.072-.12l1.408-.626c4.493-2 9.56-2.3 14.257-.843l4.464 1.381a2.55 2.55 0 002.294-.383 2.38 2.38 0 00.988-1.928V5.15a2.43 2.43 0 00-1.746-2.311z" fill="#6FBB84"/></svg>