<svg width="40" height="40" fill="none" xmlns="http://www.w3.org/2000/svg"><g clip-path="url(#clip0)"><path d="M21.173 25.16v3.929c1.942-1.933 4.691-5.322 4.691-9.105 0-4.647-4.17-8.739-5.864-10.21-1.694 1.471-5.864 5.563-5.864 10.21 0 3.783 2.75 7.172 4.691 9.105v-3.928l-2.002-2.002a1.173 1.173 0 111.659-1.659l.343.344v-3.72l-2.002-2.002a1.172 1.172 0 111.659-1.658L20 15.98l1.517-1.516a1.172 1.172 0 111.658 1.658l-2.002 2.002v3.72l.344-.344a1.172 1.172 0 111.658 1.659l-2.002 2.002z" fill="#6FBB84"/><path d="M34.795 4.907a1.162 1.162 0 00-1.005-.213l-1.178.295c-4.429 1.098-9.105-.703-11.636-4.5-.435-.652-1.517-.652-1.952 0a10.85 10.85 0 01-11.637 4.5L6.21 4.694a1.172 1.172 0 00-1.457 1.137v15.733c0 6.707 3.727 12.815 9.725 15.813l4.997 2.5a1.172 1.172 0 001.05 0l4.997-2.5c5.998-2.998 9.724-9.106 9.724-15.813V5.832c0-.361-.165-.702-.45-.925zm-13.622 27.37v1.78a1.172 1.172 0 11-2.346 0v-1.78c-1.651-1.358-7.037-6.25-7.037-12.293 0-6.985 7.202-12.44 7.509-12.669.415-.31.987-.31 1.402 0 .307.23 7.509 5.684 7.509 12.669 0 6.043-5.386 10.935-7.037 12.293z" fill="#FFC522"/></g><defs><clipPath id="clip0"><path fill="#fff" d="M0 0h40v40H0z"/></clipPath></defs></svg>