<svg width="40" height="40" fill="none" xmlns="http://www.w3.org/2000/svg"><path d="M8.078 28.25a3.672 3.672 0 015.304-3.29l1.504-1.504A6.171 6.171 0 0117.3 14.45l-.55-2.054a3.672 3.672 0 112.264-.606l.551 2.056a6.143 6.143 0 013.892 1.041l9.832-9.832A19.923 19.923 0 0020 0C8.954 0 0 8.954 0 20a19.92 19.92 0 005.054 13.288l3.407-3.406a3.656 3.656 0 01-.383-1.632z" fill="#FFC522"/><path d="M31.269 24.348a1.328 1.328 0 100-2.656 1.328 1.328 0 000 2.656zM16.981 10.06a1.328 1.328 0 100-2.657 1.328 1.328 0 000 2.656z" fill="#6FBB84"/><path d="M34.946 6.712l-9.832 9.832a6.144 6.144 0 011.041 3.892l2.056.551a3.672 3.672 0 11-.606 2.264l-2.054-.55a6.172 6.172 0 01-9.007 2.413l-1.505 1.505a3.672 3.672 0 01-4.921 4.921l-3.406 3.406A19.924 19.924 0 0020 40c11.046 0 20-8.954 20-20 0-5.1-1.91-9.755-5.054-13.288z" fill="#FFC522"/><path d="M11.75 29.578a1.328 1.328 0 100-2.657 1.328 1.328 0 000 2.657zm8.25-5.75a3.828 3.828 0 100-7.656 3.828 3.828 0 000 7.656z" fill="#6FBB84"/></svg>