<svg width="41" height="40" fill="none" xmlns="http://www.w3.org/2000/svg"><path fill-rule="evenodd" clip-rule="evenodd" d="M21.972 38.559a10.27 10.27 0 00-.712-.778 10.237 10.237 0 00-5.312-2.806 10.5 10.5 0 00-4.462.13l.096.116c.428.51.904.977 1.422 1.396a10.148 10.148 0 003.552 1.853c1.328.381 2.718.5 4.092.349a9.95 9.95 0 001.324-.243v-.017zM12.67 10.948c-.397.757-.73 1.548-.992 2.362.197 0 .396 0 .593-.017a14.82 14.82 0 001.958-.224c.954-.17 1.889-.433 2.791-.785a15.217 15.217 0 004.897-3.099 14.937 14.937 0 003.987-6.311 14.93 14.93 0 00-7.219 1.91 15.16 15.16 0 00-6.013 6.164h-.002zm7.273 18.17a2.505 2.505 0 10-.678-4.966 2.505 2.505 0 00.678 4.965z" fill="#fff"/><path fill-rule="evenodd" clip-rule="evenodd" d="M28.52 1.759a20.24 20.24 0 01-3.819 38.24c.3-.136.59-.284.873-.44a12.59 12.59 0 005.824-14.9 12.572 12.572 0 00-8.442-8.165 12.564 12.564 0 00-10.216 1.431 1.145 1.145 0 01-.598.187 1.171 1.171 0 01-.606-.175 1.147 1.147 0 01-.436-.452 1.16 1.16 0 01-.108-.62l.012-.158a15.1 15.1 0 01.134-1.118c.416.01.829.006 1.24-.012a17.388 17.388 0 0013.299-7.238A17.22 17.22 0 0027.4 5.334a17.489 17.489 0 001.076-3.21.993.993 0 00.044-.365z" fill="#fff"/><path fill-rule="evenodd" clip-rule="evenodd" d="M20.273.005a20.4 20.4 0 014.933.604 17.59 17.59 0 00-4.569.841 17.39 17.39 0 00-5.822 3.239 17.574 17.574 0 00-2.337 2.399 17.418 17.418 0 00-3.753 9.422l-.014.157a3.423 3.423 0 005.249 3.186 10.198 10.198 0 016.338-1.543 10.74 10.74 0 012.028.37 10.43 10.43 0 011.9.767 10.411 10.411 0 014.207 4.106 10.18 10.18 0 011.267 5.873c-.05.603-.153 1.2-.307 1.785a7.503 7.503 0 00-5.095-5.493 4.772 4.772 0 10-.146 2.375c.08.035.159.073.239.111a5.124 5.124 0 012.186 2.017 5.213 5.213 0 01.728 2.987 5.164 5.164 0 01-1.75 3.587c-.25.223-.522.421-.81.593-.098.06-.196.115-.293.174l-.264.143a12.66 12.66 0 00-1.328-1.55A12.562 12.562 0 009.222 33.45a1.14 1.14 0 00-.52 1.678 12.935 12.935 0 001.129 1.569 12.737 12.737 0 002.188 2.04A20.24 20.24 0 0120.267 0l.006.005z" fill="#fff"/></svg>