<svg width="256" height="50" fill="none" xmlns="http://www.w3.org/2000/svg"><path fill-rule="evenodd" clip-rule="evenodd" d="M27.308 48.202c-.278-.34-.575-.665-.888-.973a13.061 13.061 0 00-1.992-1.63 12.799 12.799 0 00-4.634-1.88 13.038 13.038 0 00-5.566.165l.122.144a12.75 12.75 0 006.206 4.051 12.92 12.92 0 002.517.461 12.71 12.71 0 004.225-.338h.01zM15.706 13.68c-.496.948-.91 1.937-1.237 2.955.248 0 .492 0 .719-.021a18.667 18.667 0 009.161-2.905 18.718 18.718 0 007.12-8.21c.274-.624.514-1.262.719-1.913a18 18 0 00-2.039.126 18.494 18.494 0 00-6.968 2.263 18.983 18.983 0 00-7.5 7.705h.025zm9.071 22.705a3.121 3.121 0 002.384-1.733 3.137 3.137 0 00-1.172-4.037 3.119 3.119 0 00-4.124.771 3.136 3.136 0 001.12 4.712c.556.271 1.18.371 1.792.287z" fill="#F7941E"/><path fill-rule="evenodd" clip-rule="evenodd" d="M35.481 2.195a25.272 25.272 0 0111.547 10.41 25.357 25.357 0 01-2.933 29.477A25.239 25.239 0 0130.725 50c.359-.17.718-.36 1.078-.551a15.66 15.66 0 006.245-6.43 15.44 15.44 0 001.169-2.908 15.73 15.73 0 00-2.126-13.307 15.668 15.668 0 00-8.553-6.186 15.435 15.435 0 00-3.081-.577 15.957 15.957 0 00-3.132.054 15.56 15.56 0 00-4.85 1.395c-.582.274-1.146.584-1.69.926a1.435 1.435 0 01-.748.23 1.437 1.437 0 01-.755-.22 1.35 1.35 0 01-.68-1.343v-.195c.04-.476.097-.94.17-1.398.517 0 1.031 0 1.542-.018.948-.04 1.892-.142 2.826-.307a21.796 21.796 0 007.734-3.023 21.672 21.672 0 009.532-13.479c.03-.096.05-.195.057-.295.01-.057.017-.115.018-.173z" fill="#FFC522"/><path fill-rule="evenodd" clip-rule="evenodd" d="M25.19 0a25.19 25.19 0 016.142.757 21.555 21.555 0 00-5.699 1.052 21.641 21.641 0 00-12.444 10.552 21.727 21.727 0 00-2.402 8.29v.194a4.314 4.314 0 001.134 3.279 4.292 4.292 0 003.18 1.373 4.307 4.307 0 002.248-.666 12.674 12.674 0 017.903-1.928 12.676 12.676 0 016.964 2.778 12.999 12.999 0 014.178 6.037c.538 1.635.737 3.363.586 5.077a13.211 13.211 0 01-.36 2.238 9.832 9.832 0 00-.283-.976 9.134 9.134 0 00-.78-1.698 9.562 9.562 0 00-1.08-1.441 9.139 9.139 0 00-1.326-1.225 9.11 9.11 0 00-2.902-1.5 5.985 5.985 0 00-2.011-3.446 5.96 5.96 0 00-7.51-.155 5.996 5.996 0 00-1.715 7.329 5.975 5.975 0 002.83 2.81 5.957 5.957 0 007.296-1.791 6.074 6.074 0 00.927-1.777l.299.137c.38.184.741.405 1.078.66a6.623 6.623 0 011.662 1.866c.445.75.734 1.582.848 2.447.06.431.076.867.047 1.301a6.407 6.407 0 01-.658 2.462 6.59 6.59 0 01-2.52 2.735l-.36.212-.331.177a13.97 13.97 0 00-.54-.703 15.633 15.633 0 00-12.225-5.795 15.67 15.67 0 00-3.009.303 15.3 15.3 0 00-2.876.876 1.44 1.44 0 00-.65 2.097c.219.36.434.685.654.988a15.656 15.656 0 002.909 3.089c.183.147.359.291.564.432A25.277 25.277 0 012.745 36.81 25.363 25.363 0 01.554 20.064a25.319 25.319 0 018.807-14.4A25.215 25.215 0 0125.245.026L25.19 0z" fill="#6FBB84"/><path fill-rule="evenodd" clip-rule="evenodd" d="M69.574 5.662c-2.808 0-4.315.194-6.166.648l.32 2.202a43.58 43.58 0 015.846-.292c4.102 0 5.717 1.838 5.976 7.168l-9.528.033v2.202l9.56.032c-.032 6.422-1.582 8.563-6.008 8.563a38.897 38.897 0 01-6.073-.36l-.288 2.162c1.798.519 3.488.746 6.36.746 6.62 0 8.947-3.045 8.947-11.576 0-8.53-2.327-11.532-8.946-11.532v.004zm19.898 14.47c3.325-.361 4.228-2.815 6.004-7.511h-2.84c-1.55 4.112-2.517 6.508-5.588 6.508h-2.197c.103-.595.157-1.198.162-1.802v-4.685H82.27V28.41h2.747v-5.622a8.258 8.258 0 00-.13-1.52h2.326c3.132.032 3.909 2.1 5.847 7.12h2.876c-2.035-5.47-2.937-7.834-6.472-8.159v-.097h.008zm15.856-7.897c-5.426 0-7.425 2.263-7.425 8.289s1.999 8.289 7.425 8.289c5.425 0 7.396-2.23 7.396-8.289 0-6.058-2.003-8.289-7.396-8.289zm0 2.328c3.426 0 4.523 1.362 4.523 5.957s-1.079 5.958-4.523 5.958c-3.445 0-4.552-1.36-4.552-5.958s1.096-5.957 4.552-5.957zM129.004 4.53c-2.617 1.618-4.523 1.391-7.04 2.162-5.199 1.554-5.943 5.341-5.943 12.17 0 5.698.453 9.908 7.191 9.908 5.814 0 7.191-3.078 7.191-8.062 0-5.406-1.615-7.608-6.264-7.608-4.102 0-5.328 1.748-6.008 3.334h-.036c.052-.77.15-1.537.292-2.296.323-2.234 1.193-4.404 4.487-5.34 2.423-.682 4.199-.52 6.785-2.138l-.648-2.137-.007.007zm-5.555 10.909c3.132 0 4.103 1.196 4.103 5.276 0 4.404-1.133 5.73-4.315 5.73-3.236 0-4.394-1.358-4.394-5.73 0-3.398.719-5.276 4.588-5.276h.018zm24.385 12.949V12.62h-2.229l-8.008 10.746a11.013 11.013 0 00-1.132 1.802h-.065c.065-.774.097-1.39.097-2.1V12.616h-2.484v15.767h2.258l8.01-10.714a9.465 9.465 0 001.097-1.845h.065c-.032.774-.094 1.423-.094 2.104V28.38l2.485.008zm11.017-16.153c-5.426 0-7.429 2.263-7.429 8.289s2.003 8.289 7.429 8.289c5.425 0 7.392-2.23 7.392-8.289 0-6.058-1.999-8.289-7.392-8.289zm0 2.328c3.422 0 4.519 1.362 4.519 5.957s-1.097 5.958-4.519 5.958c-3.423 0-4.556-1.36-4.556-5.958s1.079-5.957 4.556-5.957zm17.664-2.328c-5.425 0-7.46 2.163-7.46 8.253s2.002 8.289 7.46 8.289a16.73 16.73 0 005.361-.811l-.259-1.845c-1.54.216-3.093.324-4.649.324-3.714 0-5.033-1.326-5.033-5.957s1.323-5.925 5.033-5.925c1.129 0 2.841.065 4.265.195l.359-1.78c-1.549-.58-3.646-.743-5.069-.743h-.008zm26.906 8.289c0-5.633-2.359-7.993-8.558-8.253V5.727h-2.553v6.54c-6.231.26-8.557 2.653-8.557 8.253s2.326 7.965 8.557 8.224v6.149h2.553v-6.149c6.199-.26 8.558-2.59 8.558-8.224v.004zm-17.022 0c0-4.242 1.586-5.73 6.009-5.925v11.817c-4.423-.194-6.009-1.683-6.009-5.892zm8.367-5.925c4.423.195 5.972 1.683 5.972 5.925s-1.549 5.698-5.972 5.892v-11.82.003zm19.283 11.85c-3.236 0-4.674-.844-4.944-4.599h7.331c2.618 0 3.747-1.65 3.747-4.465-.032-3.398-2.035-5.146-6.781-5.146-5.034 0-7.191 2.036-7.191 8.22 0 6.055 2.1 8.322 7.493 8.322 1.798 0 4.649-.26 6.112-.876l-.255-1.846c-1.82.246-3.654.377-5.49.39h-.022zm-.518-11.893c2.841 0 3.876.81 3.876 2.818.032 1.164-.291 2.332-1.679 2.332h-6.688c.097-3.964 1.23-5.15 4.491-5.15zm19.056-2.328c-2.261 0-4.746 1.1-6.471 2.883l-.259-2.494h-2.23V34.89h2.693v-4.552a26.23 26.23 0 00-.097-3.171 11.236 11.236 0 005.843 1.618c4.005 0 5.943-2.105 5.943-8.191 0-5.471-1.549-8.35-5.425-8.35l.003-.015zm-1.233 14.145c-1.679 0-3.07-.422-5.034-.94v-8.376c2.158-1.65 3.679-2.429 5.394-2.429 2.484 0 3.455 1.492 3.455 5.957 0 4.628-1.079 5.795-3.811 5.795l-.004-.007zm17.701-14.145a53.309 53.309 0 00-7.623.72l.259 2.04c2.42-.227 5.102-.421 6.781-.421 2.485 0 3.164.778 3.197 2.72v1.399h-6.555c-2.779 0-4.361 1.442-4.361 3.889v1.711c0 2.84 1.873 4.397 4.674 4.397 2.909 0 5.3-1.654 6.494-2.883l.323 2.584h2.157v-11.1c0-3.82-1.873-5.045-5.361-5.045l.015-.011zm-3.071 14.08c-1.679 0-2.452-.72-2.452-2.357v-1.005c0-1.323.547-2.098 2.064-2.163l6.073-.032v3.168c-1.834 1.658-4.095 2.429-5.678 2.396l-.007-.007zM66.564 44.032a3.464 3.464 0 01-1.73-.436 3.218 3.218 0 01-1.214-1.211 3.693 3.693 0 010-3.492c.287-.504.708-.92 1.215-1.2a3.697 3.697 0 013.455 0c.507.279.925.695 1.208 1.2a3.722 3.722 0 010 3.492 3.15 3.15 0 01-1.208 1.21 3.46 3.46 0 01-1.726.437zm0-.8c.443.008.88-.103 1.266-.32a2.25 2.25 0 00.877-.92 3.052 3.052 0 000-2.706 2.219 2.219 0 00-.877-.916 2.638 2.638 0 00-2.517 0 2.282 2.282 0 00-.884.916 2.99 2.99 0 000 2.706c.203.384.51.702.884.92.387.218.825.329 1.27.32h-.019zm10.427-5.968a3.41 3.41 0 011.69.422c.501.277.913.692 1.187 1.196a3.82 3.82 0 010 3.528 3.016 3.016 0 01-1.18 1.197 3.41 3.41 0 01-1.697.425 3.144 3.144 0 01-1.46-.335 2.803 2.803 0 01-1.078-.98v3.694h-.895v-9.107h.855v1.322c.26-.43.634-.78 1.079-1.012.46-.245.975-.368 1.496-.36l.003.01zm-.064 5.968a2.49 2.49 0 001.262-.32c.378-.216.688-.535.891-.92.22-.416.33-.88.32-1.351.01-.47-.1-.934-.32-1.348a2.329 2.329 0 00-.891-.92 2.598 2.598 0 00-2.517 0 2.312 2.312 0 00-.885.92 2.747 2.747 0 00-.323 1.348c-.009.47.103.936.323 1.351.201.385.508.704.885.92.386.217.823.328 1.265.32h-.01zm11.71-5.121h-3.8v5.856h-.9v-6.663h4.697v.796l.003.01zm5.296-.847a2.818 2.818 0 011.996.649 2.524 2.524 0 01.694 1.931v4.123h-.86V42.93c-.21.354-.52.636-.891.811a3.086 3.086 0 01-1.392.292 2.721 2.721 0 01-1.769-.533 1.828 1.828 0 01-.5-2.14c.105-.242.261-.457.457-.632.405-.346 1.055-.519 1.949-.519h2.107v-.403a1.706 1.706 0 00-.478-1.309 1.982 1.982 0 00-1.402-.45 3.528 3.528 0 00-1.212.209 3.08 3.08 0 00-.996.577l-.403-.67a3.593 3.593 0 011.212-.667c.48-.156.983-.234 1.488-.231zm-.323 6.047c.46.01.912-.115 1.301-.36.369-.241.65-.593.806-1.006v-1.08h-2.071c-1.136 0-1.704.396-1.704 1.188a1.083 1.083 0 00.442.916 2.01 2.01 0 001.237.335l-.011.007zm7.101-6.007h.899v2.947h4.178v-2.947h.895v6.652h-.895v-2.933h-4.178v2.933h-.899v-6.652zm10.233 0h.895v5.286l4.433-5.286h.795v6.652h-.899V38.67l-4.415 5.287h-.809v-6.652zm15.407 0v6.652h-.896v-2.771a5.562 5.562 0 01-2.258.508 2.871 2.871 0 01-1.866-.544 2.017 2.017 0 01-.669-1.65V37.31h.896v2.137a1.36 1.36 0 00.482 1.132c.383.277.851.413 1.323.385a5.388 5.388 0 002.096-.494v-3.16l.892-.007zm10.067 3.603h-5.551a2.374 2.374 0 00.794 1.676c.499.43 1.14.657 1.798.638.39.005.776-.07 1.136-.22.344-.146.65-.37.895-.652l.507.584a2.823 2.823 0 01-1.103.807 3.95 3.95 0 01-3.269-.155 3.14 3.14 0 01-1.233-1.21 3.434 3.434 0 01-.442-1.745c-.009-.61.137-1.21.424-1.748.268-.5.67-.916 1.161-1.2a3.23 3.23 0 011.661-.429c.579-.01 1.15.138 1.651.429.487.283.886.698 1.15 1.197.285.538.428 1.141.417 1.75v.278h.004zm-3.204-2.883a2.25 2.25 0 00-1.61.613c-.433.423-.69.995-.719 1.6h4.706a2.408 2.408 0 00-.719-1.6 2.265 2.265 0 00-1.622-.613h-.036zm9.69 6.008a3.554 3.554 0 01-1.758-.432 3.096 3.096 0 01-1.219-1.208 3.684 3.684 0 010-3.5 3.123 3.123 0 011.219-1.2 3.55 3.55 0 011.758-.428 3.412 3.412 0 011.536.335c.448.213.823.554 1.078.98l-.668.454a2.074 2.074 0 00-.831-.738 2.465 2.465 0 00-1.1-.249 2.573 2.573 0 00-1.291.324 2.25 2.25 0 00-.899.916 3.042 3.042 0 000 2.713c.207.384.519.7.899.912a2.713 2.713 0 002.391.083c.337-.16.624-.41.831-.72l.668.457a2.562 2.562 0 01-1.078.98 3.41 3.41 0 01-1.528.335l-.008-.014zm8.453-3.024h-1.513v2.96h-.896v-6.664h.896v2.919h1.528l2.333-2.92h.971l-2.61 3.226 2.801 3.427h-1.079l-2.449-2.959.018.011zm6.649-3.704h.898v5.286l4.43-5.286h.784v6.652h-.895V38.67l-4.419 5.287h-.798v-6.652zm10.398 0h.895v5.286l4.43-5.286h.794v6.652h-.895V38.67l-4.419 5.287h-.805v-6.652zm3.016-.963a2.019 2.019 0 01-1.362-.432 1.52 1.52 0 01-.518-1.211h.644a1.032 1.032 0 00.359.79c.248.204.563.31.885.295.322.014.638-.092.888-.296a1.015 1.015 0 00.359-.789h.644a1.532 1.532 0 01-.522 1.21 2.05 2.05 0 01-1.369.433h-.008zm16.644.963v6.652h-.895V38.1h-4.167v5.856h-.907v-6.652h5.969zm7.68-.05a3.427 3.427 0 011.694.42c.499.28.91.695 1.186 1.197a3.852 3.852 0 010 3.528 3.041 3.041 0 01-1.179 1.197 3.427 3.427 0 01-1.701.425 3.129 3.129 0 01-1.456-.335 2.82 2.82 0 01-1.079-.98v3.704h-.895v-9.106h.859v1.322a2.76 2.76 0 011.079-1.012 3.11 3.11 0 011.496-.36h-.004zm-.061 5.967a2.49 2.49 0 001.262-.32 2.27 2.27 0 00.888-.92c.221-.415.332-.88.324-1.351a2.752 2.752 0 00-.324-1.348 2.318 2.318 0 00-.888-.919 2.606 2.606 0 00-2.517 0c-.373.22-.679.537-.884.92a2.774 2.774 0 00-.32 1.347c-.008.47.102.935.32 1.351.203.384.509.702.884.92a2.49 2.49 0 001.269.32h-.014zm12.818-2.314h-5.552a2.399 2.399 0 00.795 1.676c.499.43 1.14.657 1.798.638.39.005.776-.07 1.136-.22.344-.147.651-.37.899-.652l.503.584a2.82 2.82 0 01-1.104.807 3.943 3.943 0 01-3.268-.155 3.14 3.14 0 01-1.233-1.21 3.434 3.434 0 01-.442-1.745c-.009-.61.137-1.21.424-1.748.268-.5.67-.916 1.161-1.2a3.42 3.42 0 013.315 0c.486.284.883.699 1.147 1.197.285.538.428 1.141.417 1.75v.278h.004zm-3.204-2.883a2.248 2.248 0 00-1.628.602c-.433.424-.69.995-.72 1.6h4.675a2.408 2.408 0 00-.719-1.6 2.268 2.268 0 00-1.622-.612l.014.01zm12.869-.72v6.652h-.896V38.1h-4.167v5.856h-.895v-6.652h5.958zm6.547-.05a2.805 2.805 0 011.967.651 2.535 2.535 0 01.694 1.932v4.123h-.856v-1.038a2.05 2.05 0 01-.892.81 3.098 3.098 0 01-1.395.293 2.71 2.71 0 01-1.765-.534 1.832 1.832 0 01-.658-1.375 1.816 1.816 0 01.615-1.396c.405-.346 1.054-.519 1.949-.519h2.107v-.404A1.711 1.711 0 00226 38.49a1.98 1.98 0 00-1.402-.45 3.528 3.528 0 00-1.212.209 3.08 3.08 0 00-.996.576l-.402-.67a3.559 3.559 0 011.208-.667 4.772 4.772 0 011.492-.23l.025-.004zm-.334 6.057c.458.01.91-.115 1.298-.36.37-.24.654-.592.809-1.006v-1.08h-2.082c-1.136 0-1.704.396-1.704 1.188a1.083 1.083 0 00.442.916 2.01 2.01 0 001.237.335v.007zm10.52-6.058a3.424 3.424 0 011.694.422c.499.28.91.694 1.186 1.196a3.852 3.852 0 010 3.528 3.041 3.041 0 01-1.179 1.197 3.427 3.427 0 01-1.701.425 3.14 3.14 0 01-1.438-.335 2.82 2.82 0 01-1.079-.98v3.704h-.895v-9.106h.859v1.322a2.76 2.76 0 011.079-1.012 3.11 3.11 0 011.496-.36h-.022zm-.061 5.968a2.49 2.49 0 001.262-.32 2.27 2.27 0 00.888-.92c.221-.415.332-.88.324-1.351a2.74 2.74 0 00-.324-1.348 2.318 2.318 0 00-.888-.919 2.603 2.603 0 00-2.517 0c-.373.22-.679.537-.884.92a2.774 2.774 0 00-.32 1.347c-.008.47.102.935.32 1.351.203.384.509.702.884.92a2.49 2.49 0 001.27.32h-.015zm9.259-5.968a2.82 2.82 0 011.999.652 2.535 2.535 0 01.694 1.932v4.123h-.86v-1.038a2.05 2.05 0 01-.888.81 3.1 3.1 0 01-1.395.293 2.703 2.703 0 01-1.765-.534 1.819 1.819 0 01-.658-1.374 1.814 1.814 0 01.611-1.397c.41-.346 1.061-.519 1.952-.519h2.107v-.404a1.696 1.696 0 00-.481-1.308 1.968 1.968 0 00-1.399-.45 3.514 3.514 0 00-1.212.209 3.094 3.094 0 00-.999.576l-.403-.67a3.61 3.61 0 011.212-.667c.48-.156.983-.233 1.488-.23l-.003-.004zm-.313 6.058c.458.01.91-.115 1.298-.36.37-.24.654-.592.809-1.006v-1.08h-2.082c-1.136 0-1.704.396-1.704 1.188a1.083 1.083 0 00.442.916c.365.244.799.362 1.237.335v.007zm11.772-5.211h-2.517v5.856h-.896V38.1h-2.517v-.796h5.922l.008.796z" fill="#755441"/></svg>